<mxfile host="Electron" agent="Mozilla/5.0 (Windows NT 10.0; Win64; x64) AppleWebKit/537.36 (KHTML, like Gecko) draw.io/28.1.2 Chrome/138.0.7204.243 Electron/37.4.0 Safari/537.36" version="28.1.2">
  <diagram name="Página-1" id="b7c0HNShAyenCNqQ-96v">
    <mxGraphModel dx="1226" dy="736" grid="0" gridSize="10" guides="1" tooltips="1" connect="1" arrows="1" fold="1" page="1" pageScale="1" pageWidth="827" pageHeight="1169" background="#000000" math="0" shadow="0">
      <root>
        <mxCell id="0" />
        <mxCell id="1" parent="0" />
        <mxCell id="k4jxe9d4MujFpcMfzilK-7" value="" style="ellipse;shape=cloud;whiteSpace=wrap;html=1;fillColor=none;strokeColor=#996185;strokeWidth=3;gradientColor=default;shadow=0;" vertex="1" parent="1">
          <mxGeometry x="170" y="117" width="590" height="390" as="geometry" />
        </mxCell>
        <mxCell id="k4jxe9d4MujFpcMfzilK-12" style="edgeStyle=orthogonalEdgeStyle;rounded=0;orthogonalLoop=1;jettySize=auto;html=1;strokeWidth=3;strokeColor=#333333;flowAnimation=1;" edge="1" parent="1">
          <mxGeometry relative="1" as="geometry">
            <mxPoint x="595" y="300" as="sourcePoint" />
            <mxPoint x="382" y="300" as="targetPoint" />
          </mxGeometry>
        </mxCell>
        <mxCell id="k4jxe9d4MujFpcMfzilK-13" value="leitura de dados" style="edgeLabel;html=1;align=center;verticalAlign=middle;resizable=0;points=[];" vertex="1" connectable="0" parent="k4jxe9d4MujFpcMfzilK-12">
          <mxGeometry x="-0.0573" y="1" relative="1" as="geometry">
            <mxPoint x="-6" y="-1" as="offset" />
          </mxGeometry>
        </mxCell>
        <mxCell id="k4jxe9d4MujFpcMfzilK-2" value="Amazon EBS" style="outlineConnect=0;dashed=0;verticalLabelPosition=bottom;verticalAlign=top;align=center;html=1;shape=mxgraph.aws3.volume;fillColor=#e6d0de;strokeColor=#996185;gradientColor=#d5739d;" vertex="1" parent="1">
          <mxGeometry x="595" y="268.5" width="52.5" height="75" as="geometry" />
        </mxCell>
        <mxCell id="k4jxe9d4MujFpcMfzilK-11" style="edgeStyle=orthogonalEdgeStyle;rounded=0;orthogonalLoop=1;jettySize=auto;html=1;flowAnimation=1;strokeWidth=3;strokeColor=#333333;" edge="1" parent="1" source="k4jxe9d4MujFpcMfzilK-3" target="k4jxe9d4MujFpcMfzilK-2">
          <mxGeometry relative="1" as="geometry">
            <Array as="points">
              <mxPoint x="487" y="316" />
              <mxPoint x="487" y="316" />
            </Array>
          </mxGeometry>
        </mxCell>
        <mxCell id="k4jxe9d4MujFpcMfzilK-14" value="gravação de dados" style="edgeLabel;html=1;align=center;verticalAlign=middle;resizable=0;points=[];" vertex="1" connectable="0" parent="k4jxe9d4MujFpcMfzilK-11">
          <mxGeometry x="0.1887" y="-2" relative="1" as="geometry">
            <mxPoint x="-18" y="-2" as="offset" />
          </mxGeometry>
        </mxCell>
        <mxCell id="k4jxe9d4MujFpcMfzilK-3" value="&lt;font style=&quot;color: rgb(255, 255, 255);&quot;&gt;Amazon EC2&lt;/font&gt;" style="sketch=0;points=[[0,0,0],[0.25,0,0],[0.5,0,0],[0.75,0,0],[1,0,0],[0,1,0],[0.25,1,0],[0.5,1,0],[0.75,1,0],[1,1,0],[0,0.25,0],[0,0.5,0],[0,0.75,0],[1,0.25,0],[1,0.5,0],[1,0.75,0]];outlineConnect=0;fillColor=#e6d0de;strokeColor=#996185;dashed=0;verticalLabelPosition=bottom;verticalAlign=top;align=center;html=1;fontSize=12;fontStyle=0;aspect=fixed;shape=mxgraph.aws4.resourceIcon;resIcon=mxgraph.aws4.ec2;gradientColor=#d5739d;" vertex="1" parent="1">
          <mxGeometry x="304" y="267" width="78" height="78" as="geometry" />
        </mxCell>
        <mxCell id="k4jxe9d4MujFpcMfzilK-5" value="Usuário" style="points=[[0.35,0,0],[0.98,0.51,0],[1,0.71,0],[0.67,1,0],[0,0.795,0],[0,0.65,0]];verticalLabelPosition=bottom;sketch=0;html=1;verticalAlign=top;aspect=fixed;align=center;pointerEvents=1;shape=mxgraph.cisco19.user;fillColor=#e6d0de;strokeColor=#996185;gradientColor=#d5739d;" vertex="1" parent="1">
          <mxGeometry x="81" y="281" width="50" height="50" as="geometry" />
        </mxCell>
        <mxCell id="k4jxe9d4MujFpcMfzilK-8" style="edgeStyle=orthogonalEdgeStyle;rounded=0;orthogonalLoop=1;jettySize=auto;html=1;entryX=0;entryY=0.5;entryDx=0;entryDy=0;entryPerimeter=0;flowAnimation=1;shadow=0;curved=0;strokeColor=#333333;strokeWidth=3;" edge="1" parent="1" source="k4jxe9d4MujFpcMfzilK-5" target="k4jxe9d4MujFpcMfzilK-3">
          <mxGeometry relative="1" as="geometry" />
        </mxCell>
      </root>
    </mxGraphModel>
  </diagram>
</mxfile>
